<svg width="63" height="17" viewBox="0 0 63 17" fill="none" xmlns="http://www.w3.org/2000/svg">
<path d="M3.59998 16.0801H-2.19047e-05V7.77245e-05H4.87198L8.63998 7.92008L10.152 11.6881H10.416L11.88 7.92008L15.528 7.77245e-05H20.424V16.0801H16.824V7.92008L16.944 5.40008H16.68L15.744 7.92008L12.384 15.1201H8.01598L4.65598 7.92008L3.71998 5.40008H3.45598L3.59998 7.92008V16.0801ZM32.9685 16.0801H27.8325L21.1605 7.77245e-05H25.5045L30.3285 12.4321H30.5685L35.3205 7.77245e-05H39.6405L32.9685 16.0801ZM44.0062 16.0801H40.4062V7.77245e-05H44.2462L50.0062 7.60808L52.2142 10.9921H52.4782L52.3102 7.75208V7.77245e-05H55.9102V16.0801H52.0702L46.1422 8.40008L44.1022 5.37608H43.8622L44.0062 8.32808V16.0801ZM62.2123 16.0801H57.5803V11.8801H62.2123V16.0801Z" fill="url(#paint0_linear_1147_3028)"/>
<defs>
<linearGradient id="paint0_linear_1147_3028" x1="-0.960022" y1="-11.9199" x2="53.6062" y2="38.3251" gradientUnits="userSpaceOnUse">
<stop stop-color="#7B61FF"/>
<stop offset="1" stop-color="#FF6F91"/>
</linearGradient>
</defs>
</svg>
